<svg width="366" height="57" viewBox="0 0 366 57" fill="none" xmlns="http://www.w3.org/2000/svg">
<path d="M13.9899 9.03L12.9009 6.137C12.8129 5.91333 12.7231 5.62917 12.6314 5.2845C12.5911 5.45683 12.5471 5.61633 12.4994 5.763C12.4517 5.906 12.4077 6.0325 12.3674 6.1425L11.2784 9.03H13.9899ZM16.4264 12H15.4309C15.3172 12 15.2256 11.9725 15.1559 11.9175C15.0862 11.8588 15.0331 11.7873 14.9964 11.703L14.3364 9.954H10.9264L10.2664 11.703C10.2371 11.7763 10.1857 11.8442 10.1124 11.9065C10.0391 11.9688 9.9474 12 9.8374 12H8.8419L11.9824 4.08H13.2859L16.4264 12ZM21.4458 7.49C21.4091 7.53767 21.3743 7.57433 21.3413 7.6C21.3083 7.62567 21.2606 7.6385 21.1983 7.6385C21.1359 7.6385 21.0699 7.6165 21.0003 7.5725C20.9343 7.5285 20.8536 7.48083 20.7583 7.4295C20.6666 7.3745 20.5548 7.325 20.4228 7.281C20.2908 7.237 20.1258 7.215 19.9278 7.215C19.6711 7.215 19.4456 7.26083 19.2513 7.3525C19.0606 7.44417 18.8993 7.57617 18.7673 7.7485C18.6389 7.91717 18.5418 8.12433 18.4758 8.37C18.4134 8.612 18.3823 8.88517 18.3823 9.1895C18.3823 9.50483 18.4171 9.78533 18.4868 10.031C18.5564 10.2767 18.6554 10.4838 18.7838 10.6525C18.9158 10.8212 19.0734 10.9495 19.2568 11.0375C19.4438 11.1255 19.6528 11.1695 19.8838 11.1695C20.1111 11.1695 20.2963 11.142 20.4393 11.087C20.5823 11.032 20.7014 10.9715 20.7968 10.9055C20.8921 10.8395 20.9728 10.779 21.0388 10.724C21.1084 10.669 21.1818 10.6415 21.2588 10.6415C21.3541 10.6415 21.4274 10.6782 21.4788 10.7515L21.8143 11.186C21.6786 11.351 21.5283 11.4903 21.3633 11.604C21.1983 11.7177 21.0241 11.8112 20.8408 11.8845C20.6574 11.9542 20.4668 12.0037 20.2688 12.033C20.0708 12.066 19.8709 12.0825 19.6693 12.0825C19.3209 12.0825 18.9946 12.0183 18.6903 11.89C18.3896 11.758 18.1256 11.5692 17.8983 11.3235C17.6746 11.0742 17.4968 10.7717 17.3648 10.416C17.2364 10.0567 17.1723 9.64783 17.1723 9.1895C17.1723 8.77517 17.2309 8.392 17.3483 8.04C17.4656 7.68433 17.6361 7.37817 17.8598 7.1215C18.0871 6.86483 18.3676 6.665 18.7013 6.522C19.0349 6.37533 19.4199 6.302 19.8563 6.302C20.2633 6.302 20.6208 6.368 20.9288 6.5C21.2404 6.632 21.5173 6.819 21.7593 7.061L21.4458 7.49ZM27.1342 7.49C27.0976 7.53767 27.0627 7.57433 27.0297 7.6C26.9967 7.62567 26.9491 7.6385 26.8867 7.6385C26.8244 7.6385 26.7584 7.6165 26.6887 7.5725C26.6227 7.5285 26.5421 7.48083 26.4467 7.4295C26.3551 7.3745 26.2432 7.325 26.1112 7.281C25.9792 7.237 25.8142 7.215 25.6162 7.215C25.3596 7.215 25.1341 7.26083 24.9397 7.3525C24.7491 7.44417 24.5877 7.57617 24.4557 7.7485C24.3274 7.91717 24.2302 8.12433 24.1642 8.37C24.1019 8.612 24.0707 8.88517 24.0707 9.1895C24.0707 9.50483 24.1056 9.78533 24.1752 10.031C24.2449 10.2767 24.3439 10.4838 24.4722 10.6525C24.6042 10.8212 24.7619 10.9495 24.9452 11.0375C25.1322 11.1255 25.3412 11.1695 25.5722 11.1695C25.7996 11.1695 25.9847 11.142 26.1277 11.087C26.2707 11.032 26.3899 10.9715 26.4852 10.9055C26.5806 10.8395 26.6612 10.779 26.7272 10.724C26.7969 10.669 26.8702 10.6415 26.9472 10.6415C27.0426 10.6415 27.1159 10.6782 27.1672 10.7515L27.5027 11.186C27.3671 11.351 27.2167 11.4903 27.0517 11.604C26.8867 11.7177 26.7126 11.8112 26.5292 11.8845C26.3459 11.9542 26.1552 12.0037 25.9572 12.033C25.7592 12.066 25.5594 12.0825 25.3577 12.0825C25.0094 12.0825 24.6831 12.0183 24.3787 11.89C24.0781 11.758 23.8141 11.5692 23.5867 11.3235C23.3631 11.0742 23.1852 10.7717 23.0532 10.416C22.9249 10.0567 22.8607 9.64783 22.8607 9.1895C22.8607 8.77517 22.9194 8.392 23.0367 8.04C23.1541 7.68433 23.3246 7.37817 23.5482 7.1215C23.7756 6.86483 24.0561 6.665 24.3897 6.522C24.7234 6.37533 25.1084 6.302 25.5447 6.302C25.9517 6.302 26.3092 6.368 26.6172 6.5C26.9289 6.632 27.2057 6.819 27.4477 7.061L27.1342 7.49ZM32.5367 8.5625C32.5367 8.3645 32.5074 8.18117 32.4487 8.0125C32.3937 7.84017 32.3112 7.69167 32.2012 7.567C32.0912 7.43867 31.9537 7.33967 31.7887 7.27C31.6274 7.19667 31.4404 7.16 31.2277 7.16C30.7987 7.16 30.4614 7.28283 30.2157 7.5285C29.9701 7.77417 29.8142 8.11883 29.7482 8.5625H32.5367ZM29.7152 9.2885C29.7299 9.6075 29.7794 9.88433 29.8637 10.119C29.9481 10.35 30.0599 10.5425 30.1992 10.6965C30.3422 10.8505 30.5109 10.966 30.7052 11.043C30.9032 11.1163 31.1232 11.153 31.3652 11.153C31.5962 11.153 31.7961 11.1273 31.9647 11.076C32.1334 11.021 32.2801 10.9623 32.4047 10.9C32.5294 10.834 32.6357 10.7753 32.7237 10.724C32.8117 10.669 32.8924 10.6415 32.9657 10.6415C33.0611 10.6415 33.1344 10.6782 33.1857 10.7515L33.5212 11.186C33.3819 11.351 33.2242 11.4903 33.0482 11.604C32.8722 11.7177 32.6852 11.8112 32.4872 11.8845C32.2892 11.9542 32.0857 12.0037 31.8767 12.033C31.6677 12.066 31.4642 12.0825 31.2662 12.0825C30.8776 12.0825 30.5164 12.0183 30.1827 11.89C29.8527 11.758 29.5649 11.5655 29.3192 11.3125C29.0772 11.0595 28.8866 10.746 28.7472 10.372C28.6116 9.998 28.5437 9.56717 28.5437 9.0795C28.5437 8.69083 28.6042 8.32783 28.7252 7.9905C28.8499 7.65317 29.0259 7.35983 29.2532 7.1105C29.4842 6.86117 29.7629 6.665 30.0892 6.522C30.4192 6.37533 30.7914 6.302 31.2057 6.302C31.5504 6.302 31.8694 6.35883 32.1627 6.4725C32.4561 6.5825 32.7091 6.74567 32.9217 6.962C33.1344 7.17833 33.2994 7.44417 33.4167 7.7595C33.5377 8.07117 33.5982 8.42683 33.5982 8.8265C33.5982 9.00983 33.5781 9.13267 33.5377 9.195C33.4974 9.25733 33.4241 9.2885 33.3177 9.2885H29.7152ZM36.3835 10.592C36.5485 10.8047 36.7281 10.955 36.9225 11.043C37.1205 11.1273 37.3386 11.1695 37.577 11.1695C38.039 11.1695 38.3983 11.0008 38.655 10.6635C38.9153 10.3262 39.0455 9.82383 39.0455 9.1565C39.0455 8.81183 39.0161 8.5185 38.9575 8.2765C38.8988 8.03083 38.8145 7.831 38.7045 7.677C38.5945 7.523 38.4606 7.41117 38.303 7.3415C38.1453 7.27183 37.9675 7.237 37.7695 7.237C37.4688 7.237 37.2085 7.303 36.9885 7.435C36.7721 7.56333 36.5705 7.7485 36.3835 7.9905V10.592ZM36.323 7.204C36.5576 6.929 36.8235 6.70717 37.1205 6.5385C37.4211 6.36983 37.7695 6.2855 38.1655 6.2855C38.4808 6.2855 38.7668 6.34967 39.0235 6.478C39.2801 6.60267 39.5001 6.786 39.6835 7.028C39.8668 7.27 40.008 7.57067 40.107 7.93C40.2096 8.28567 40.261 8.6945 40.261 9.1565C40.261 9.57083 40.2041 9.95767 40.0905 10.317C39.9805 10.6727 39.821 10.9825 39.612 11.2465C39.403 11.5068 39.15 11.7122 38.853 11.8625C38.556 12.0092 38.2205 12.0825 37.8465 12.0825C37.5165 12.0825 37.236 12.0293 37.005 11.923C36.7776 11.8167 36.5705 11.67 36.3835 11.483V13.8645H35.201V6.39H35.916C36.0773 6.39 36.18 6.46517 36.224 6.6155L36.323 7.204ZM43.6333 12.088C43.1676 12.088 42.8083 11.9578 42.5553 11.6975C42.3059 11.4335 42.1813 11.0632 42.1813 10.5865V7.3195H41.5653C41.4993 7.3195 41.4424 7.29933 41.3948 7.259C41.3471 7.215 41.3233 7.15083 41.3233 7.0665V6.588L42.2308 6.456L42.4893 4.8335C42.5076 4.77117 42.5388 4.72167 42.5828 4.685C42.6268 4.64467 42.6854 4.6245 42.7588 4.6245H43.3638V6.467H44.9203V7.3195H43.3638V10.504C43.3638 10.7057 43.4133 10.8597 43.5123 10.966C43.6113 11.0723 43.7433 11.1255 43.9083 11.1255C43.9999 11.1255 44.0788 11.1145 44.1448 11.0925C44.2108 11.0668 44.2676 11.0412 44.3153 11.0155C44.3629 10.9862 44.4033 10.9605 44.4363 10.9385C44.4729 10.9128 44.5078 10.9 44.5408 10.9C44.6068 10.9 44.6599 10.9367 44.7003 11.01L45.0523 11.5875C44.8689 11.7488 44.6526 11.8735 44.4033 11.9615C44.1539 12.0458 43.8973 12.088 43.6333 12.088ZM49.9889 8.5625C49.9889 8.3645 49.9595 8.18117 49.9009 8.0125C49.8459 7.84017 49.7634 7.69167 49.6534 7.567C49.5434 7.43867 49.4059 7.33967 49.2409 7.27C49.0795 7.19667 48.8925 7.16 48.6799 7.16C48.2509 7.16 47.9135 7.28283 47.6679 7.5285C47.4222 7.77417 47.2664 8.11883 47.2004 8.5625H49.9889ZM47.1674 9.2885C47.182 9.6075 47.2315 9.88433 47.3159 10.119C47.4002 10.35 47.512 10.5425 47.6514 10.6965C47.7944 10.8505 47.963 10.966 48.1574 11.043C48.3554 11.1163 48.5754 11.153 48.8174 11.153C49.0484 11.153 49.2482 11.1273 49.4169 11.076C49.5855 11.021 49.7322 10.9623 49.8569 10.9C49.9815 10.834 50.0879 10.7753 50.1759 10.724C50.2639 10.669 50.3445 10.6415 50.4179 10.6415C50.5132 10.6415 50.5865 10.6782 50.6379 10.7515L50.9734 11.186C50.834 11.351 50.6764 11.4903 50.5004 11.604C50.3244 11.7177 50.1374 11.8112 49.9394 11.8845C49.7414 11.9542 49.5379 12.0037 49.3289 12.033C49.1199 12.066 48.9164 12.0825 48.7184 12.0825C48.3297 12.0825 47.9685 12.0183 47.6349 11.89C47.3049 11.758 47.017 11.5655 46.7714 11.3125C46.5294 11.0595 46.3387 10.746 46.1994 10.372C46.0637 9.998 45.9959 9.56717 45.9959 9.0795C45.9959 8.69083 46.0564 8.32783 46.1774 7.9905C46.302 7.65317 46.478 7.35983 46.7054 7.1105C46.9364 6.86117 47.215 6.665 47.5414 6.522C47.8714 6.37533 48.2435 6.302 48.6579 6.302C49.0025 6.302 49.3215 6.35883 49.6149 6.4725C49.9082 6.5825 50.1612 6.74567 50.3739 6.962C50.5865 7.17833 50.7515 7.44417 50.8689 7.7595C50.9899 8.07117 51.0504 8.42683 51.0504 8.8265C51.0504 9.00983 51.0302 9.13267 50.9899 9.195C50.9495 9.25733 50.8762 9.2885 50.7699 9.2885H47.1674ZM56.2336 7.7705C56.0686 7.55783 55.8871 7.40933 55.6891 7.325C55.4911 7.24067 55.2766 7.1985 55.0456 7.1985C54.5836 7.1985 54.2225 7.369 53.9621 7.71C53.7018 8.04733 53.5716 8.54783 53.5716 9.2115C53.5716 9.55617 53.601 9.85133 53.6596 10.097C53.7183 10.339 53.8026 10.537 53.9126 10.691C54.0226 10.845 54.1565 10.9568 54.3141 11.0265C54.4718 11.0962 54.6496 11.131 54.8476 11.131C55.1483 11.131 55.4068 11.0668 55.6231 10.9385C55.8431 10.8065 56.0466 10.6213 56.2336 10.383V7.7705ZM57.4161 3.86V12H56.7011C56.5435 12 56.4426 11.9248 56.3986 11.7745L56.2941 11.164C56.0595 11.439 55.7918 11.6608 55.4911 11.8295C55.1941 11.9982 54.8476 12.0825 54.4516 12.0825C54.1363 12.0825 53.8503 12.0202 53.5936 11.8955C53.337 11.7672 53.117 11.582 52.9336 11.34C52.7503 11.098 52.6073 10.7992 52.5046 10.4435C52.4056 10.0842 52.3561 9.6735 52.3561 9.2115C52.3561 8.7935 52.4111 8.40667 52.5211 8.051C52.6348 7.69533 52.7961 7.38733 53.0051 7.127C53.2141 6.863 53.4671 6.65767 53.7641 6.511C54.0648 6.36067 54.4003 6.2855 54.7706 6.2855C55.1006 6.2855 55.3811 6.33867 55.6121 6.445C55.8431 6.54767 56.0503 6.6925 56.2336 6.8795V3.86H57.4161Z" fill="#6F6F6F"/>
<rect x="32" y="18" width="3" height="3" rx="1.5" fill="#0043CE"/>
<g clip-path="url(#clip0_423_68)">
<rect y="29" width="67" height="8" rx="4" fill="#D0E2FF"/>
<rect y="29" width="67" height="8" rx="4" fill="#0043CE"/>
</g>
<path d="M88.0929 9.03L87.0039 6.137C86.9159 5.91333 86.8261 5.62917 86.7344 5.2845C86.6941 5.45683 86.6501 5.61633 86.6024 5.763C86.5548 5.906 86.5108 6.0325 86.4704 6.1425L85.3814 9.03H88.0929ZM90.5294 12H89.5339C89.4203 12 89.3286 11.9725 89.2589 11.9175C89.1893 11.8588 89.1361 11.7873 89.0994 11.703L88.4394 9.954H85.0294L84.3694 11.703C84.3401 11.7763 84.2888 11.8442 84.2154 11.9065C84.1421 11.9688 84.0504 12 83.9404 12H82.9449L86.0854 4.08H87.3889L90.5294 12ZM92.8947 10.592C93.0597 10.8047 93.2394 10.955 93.4337 11.043C93.6317 11.1273 93.8499 11.1695 94.0882 11.1695C94.5502 11.1695 94.9095 11.0008 95.1662 10.6635C95.4265 10.3262 95.5567 9.82383 95.5567 9.1565C95.5567 8.81183 95.5274 8.5185 95.4687 8.2765C95.41 8.03083 95.3257 7.831 95.2157 7.677C95.1057 7.523 94.9719 7.41117 94.8142 7.3415C94.6565 7.27183 94.4787 7.237 94.2807 7.237C93.98 7.237 93.7197 7.303 93.4997 7.435C93.2834 7.56333 93.0817 7.7485 92.8947 7.9905V10.592ZM92.8342 7.204C93.0689 6.929 93.3347 6.70717 93.6317 6.5385C93.9324 6.36983 94.2807 6.2855 94.6767 6.2855C94.992 6.2855 95.278 6.34967 95.5347 6.478C95.7914 6.60267 96.0114 6.786 96.1947 7.028C96.378 7.27 96.5192 7.57067 96.6182 7.93C96.7209 8.28567 96.7722 8.6945 96.7722 9.1565C96.7722 9.57083 96.7154 9.95767 96.6017 10.317C96.4917 10.6727 96.3322 10.9825 96.1232 11.2465C95.9142 11.5068 95.6612 11.7122 95.3642 11.8625C95.0672 12.0092 94.7317 12.0825 94.3577 12.0825C94.0277 12.0825 93.7472 12.0293 93.5162 11.923C93.2889 11.8167 93.0817 11.67 92.8947 11.483V13.8645H91.7122V6.39H92.4272C92.5885 6.39 92.6912 6.46517 92.7352 6.6155L92.8342 7.204ZM99.6037 10.592C99.7687 10.8047 99.9484 10.955 100.143 11.043C100.341 11.1273 100.559 11.1695 100.797 11.1695C101.259 11.1695 101.619 11.0008 101.875 10.6635C102.136 10.3262 102.266 9.82383 102.266 9.1565C102.266 8.81183 102.236 8.5185 102.178 8.2765C102.119 8.03083 102.035 7.831 101.925 7.677C101.815 7.523 101.681 7.41117 101.523 7.3415C101.366 7.27183 101.188 7.237 100.99 7.237C100.689 7.237 100.429 7.303 100.209 7.435C99.9924 7.56333 99.7907 7.7485 99.6037 7.9905V10.592ZM99.5432 7.204C99.7779 6.929 100.044 6.70717 100.341 6.5385C100.641 6.36983 100.99 6.2855 101.386 6.2855C101.701 6.2855 101.987 6.34967 102.244 6.478C102.5 6.60267 102.72 6.786 102.904 7.028C103.087 7.27 103.228 7.57067 103.327 7.93C103.43 8.28567 103.481 8.6945 103.481 9.1565C103.481 9.57083 103.424 9.95767 103.311 10.317C103.201 10.6727 103.041 10.9825 102.832 11.2465C102.623 11.5068 102.37 11.7122 102.073 11.8625C101.776 12.0092 101.441 12.0825 101.067 12.0825C100.737 12.0825 100.456 12.0293 100.225 11.923C99.9979 11.8167 99.7907 11.67 99.6037 11.483V13.8645H98.4212V6.39H99.1362C99.2975 6.39 99.4002 6.46517 99.4442 6.6155L99.5432 7.204ZM106.247 7.4295C106.423 7.07383 106.635 6.79517 106.885 6.5935C107.134 6.38817 107.433 6.2855 107.781 6.2855C107.902 6.2855 108.016 6.30017 108.122 6.3295C108.229 6.35517 108.324 6.3955 108.408 6.4505L108.326 7.3415C108.311 7.40383 108.287 7.44783 108.254 7.4735C108.225 7.4955 108.185 7.5065 108.133 7.5065C108.078 7.5065 107.999 7.49733 107.897 7.479C107.794 7.457 107.686 7.446 107.572 7.446C107.407 7.446 107.261 7.46983 107.132 7.5175C107.008 7.56517 106.894 7.63483 106.791 7.7265C106.692 7.81817 106.604 7.93 106.527 8.062C106.45 8.194 106.379 8.34433 106.313 8.513V12H105.13V6.39H105.818C105.942 6.39 106.029 6.41383 106.076 6.4615C106.124 6.5055 106.157 6.58433 106.175 6.698L106.247 7.4295ZM111.923 6.302C112.337 6.302 112.711 6.36983 113.045 6.5055C113.382 6.64117 113.668 6.83367 113.903 7.083C114.141 7.33233 114.325 7.63483 114.453 7.9905C114.581 8.34617 114.645 8.74583 114.645 9.1895C114.645 9.63317 114.581 10.0328 114.453 10.3885C114.325 10.7442 114.141 11.0485 113.903 11.3015C113.668 11.5508 113.382 11.7433 113.045 11.879C112.711 12.0147 112.337 12.0825 111.923 12.0825C111.505 12.0825 111.127 12.0147 110.79 11.879C110.456 11.7433 110.17 11.5508 109.932 11.3015C109.694 11.0485 109.51 10.7442 109.382 10.3885C109.254 10.0328 109.189 9.63317 109.189 9.1895C109.189 8.74583 109.254 8.34617 109.382 7.9905C109.51 7.63483 109.694 7.33233 109.932 7.083C110.17 6.83367 110.456 6.64117 110.79 6.5055C111.127 6.36983 111.505 6.302 111.923 6.302ZM111.923 11.1585C112.429 11.1585 112.805 10.9898 113.05 10.6525C113.3 10.3115 113.424 9.82567 113.424 9.195C113.424 8.56433 113.3 8.0785 113.05 7.7375C112.805 7.39283 112.429 7.2205 111.923 7.2205C111.41 7.2205 111.028 7.39283 110.779 7.7375C110.53 8.0785 110.405 8.56433 110.405 9.195C110.405 9.82567 110.53 10.3115 110.779 10.6525C111.028 10.9898 111.41 11.1585 111.923 11.1585ZM121.059 6.39L118.804 12H117.737L115.482 6.39H116.456C116.548 6.39 116.623 6.41383 116.681 6.4615C116.744 6.5055 116.784 6.55867 116.802 6.621L118.045 9.888C118.097 10.042 118.143 10.1942 118.183 10.3445C118.223 10.4948 118.258 10.647 118.287 10.801C118.317 10.647 118.352 10.4967 118.392 10.35C118.436 10.1997 118.484 10.0457 118.535 9.888L119.8 6.621C119.822 6.555 119.862 6.5 119.921 6.456C119.98 6.412 120.051 6.39 120.135 6.39H121.059ZM125.886 8.5625C125.886 8.3645 125.857 8.18117 125.798 8.0125C125.743 7.84017 125.66 7.69167 125.55 7.567C125.44 7.43867 125.303 7.33967 125.138 7.27C124.977 7.19667 124.79 7.16 124.577 7.16C124.148 7.16 123.811 7.28283 123.565 7.5285C123.319 7.77417 123.163 8.11883 123.097 8.5625H125.886ZM123.064 9.2885C123.079 9.6075 123.129 9.88433 123.213 10.119C123.297 10.35 123.409 10.5425 123.548 10.6965C123.691 10.8505 123.86 10.966 124.054 11.043C124.252 11.1163 124.472 11.153 124.714 11.153C124.945 11.153 125.145 11.1273 125.314 11.076C125.483 11.021 125.629 10.9623 125.754 10.9C125.879 10.834 125.985 10.7753 126.073 10.724C126.161 10.669 126.242 10.6415 126.315 10.6415C126.41 10.6415 126.484 10.6782 126.535 10.7515L126.87 11.186C126.731 11.351 126.573 11.4903 126.397 11.604C126.221 11.7177 126.034 11.8112 125.836 11.8845C125.638 11.9542 125.435 12.0037 125.226 12.033C125.017 12.066 124.813 12.0825 124.615 12.0825C124.227 12.0825 123.866 12.0183 123.532 11.89C123.202 11.758 122.914 11.5655 122.668 11.3125C122.426 11.0595 122.236 10.746 122.096 10.372C121.961 9.998 121.893 9.56717 121.893 9.0795C121.893 8.69083 121.953 8.32783 122.074 7.9905C122.199 7.65317 122.375 7.35983 122.602 7.1105C122.833 6.86117 123.112 6.665 123.438 6.522C123.768 6.37533 124.141 6.302 124.555 6.302C124.9 6.302 125.219 6.35883 125.512 6.4725C125.805 6.5825 126.058 6.74567 126.271 6.962C126.484 7.17833 126.649 7.44417 126.766 7.7595C126.887 8.07117 126.947 8.42683 126.947 8.8265C126.947 9.00983 126.927 9.13267 126.887 9.195C126.847 9.25733 126.773 9.2885 126.667 9.2885H123.064ZM132.131 7.7705C131.966 7.55783 131.784 7.40933 131.586 7.325C131.388 7.24067 131.174 7.1985 130.943 7.1985C130.481 7.1985 130.119 7.369 129.859 7.71C129.599 8.04733 129.469 8.54783 129.469 9.2115C129.469 9.55617 129.498 9.85133 129.557 10.097C129.615 10.339 129.7 10.537 129.81 10.691C129.92 10.845 130.053 10.9568 130.211 11.0265C130.369 11.0962 130.547 11.131 130.745 11.131C131.045 11.131 131.304 11.0668 131.52 10.9385C131.74 10.8065 131.944 10.6213 132.131 10.383V7.7705ZM133.313 3.86V12H132.598C132.44 12 132.34 11.9248 132.296 11.7745L132.191 11.164C131.956 11.439 131.689 11.6608 131.388 11.8295C131.091 11.9982 130.745 12.0825 130.349 12.0825C130.033 12.0825 129.747 12.0202 129.491 11.8955C129.234 11.7672 129.014 11.582 128.831 11.34C128.647 11.098 128.504 10.7992 128.402 10.4435C128.303 10.0842 128.253 9.6735 128.253 9.2115C128.253 8.7935 128.308 8.40667 128.418 8.051C128.532 7.69533 128.693 7.38733 128.902 7.127C129.111 6.863 129.364 6.65767 129.661 6.511C129.962 6.36067 130.297 6.2855 130.668 6.2855C130.998 6.2855 131.278 6.33867 131.509 6.445C131.74 6.54767 131.947 6.6925 132.131 6.8795V3.86H133.313Z" fill="#6F6F6F"/>
<rect x="107" y="18" width="3" height="3" rx="1.5" fill="#F1C21B"/>
<g clip-path="url(#clip1_423_68)">
<rect x="75" y="29" width="67" height="8" rx="4" fill="#3330E4"/>
<rect x="75" y="29" width="67" height="8" rx="4" fill="#0043CE" fill-opacity="0.701961"/>
</g>
<path d="M168.043 8.04C168.043 8.62667 167.948 9.1675 167.757 9.6625C167.566 10.1575 167.297 10.5847 166.949 10.944C166.604 11.2997 166.188 11.5783 165.7 11.78C165.216 11.9817 164.677 12.0825 164.083 12.0825C163.493 12.0825 162.954 11.9817 162.466 11.78C161.982 11.5783 161.566 11.2997 161.218 10.944C160.869 10.5847 160.6 10.1575 160.409 9.6625C160.218 9.1675 160.123 8.62667 160.123 8.04C160.123 7.45333 160.218 6.9125 160.409 6.4175C160.6 5.9225 160.869 5.49533 161.218 5.136C161.566 4.77667 161.982 4.49617 162.466 4.2945C162.954 4.09283 163.493 3.992 164.083 3.992C164.677 3.992 165.216 4.09283 165.7 4.2945C166.188 4.49617 166.604 4.77667 166.949 5.136C167.297 5.49533 167.566 5.9225 167.757 6.4175C167.948 6.9125 168.043 7.45333 168.043 8.04ZM166.729 8.04C166.729 7.58533 166.666 7.1765 166.542 6.8135C166.421 6.4505 166.245 6.1425 166.014 5.8895C165.786 5.6365 165.509 5.44217 165.183 5.3065C164.857 5.17083 164.49 5.103 164.083 5.103C163.68 5.103 163.315 5.17083 162.989 5.3065C162.662 5.44217 162.384 5.6365 162.153 5.8895C161.922 6.1425 161.744 6.4505 161.619 6.8135C161.494 7.1765 161.432 7.58533 161.432 8.04C161.432 8.49833 161.494 8.909 161.619 9.272C161.744 9.635 161.922 9.943 162.153 10.196C162.384 10.4453 162.662 10.6378 162.989 10.7735C163.315 10.9055 163.68 10.9715 164.083 10.9715C164.49 10.9715 164.857 10.9055 165.183 10.7735C165.509 10.6378 165.786 10.4453 166.014 10.196C166.245 9.943 166.421 9.635 166.542 9.272C166.666 8.909 166.729 8.49833 166.729 8.04ZM170.742 7.1325C170.863 7.00783 170.988 6.896 171.116 6.797C171.248 6.69433 171.387 6.60633 171.534 6.533C171.681 6.45967 171.837 6.40283 172.002 6.3625C172.167 6.32217 172.346 6.302 172.541 6.302C172.849 6.302 173.118 6.35333 173.349 6.456C173.584 6.55867 173.78 6.7035 173.938 6.8905C174.099 7.0775 174.22 7.303 174.301 7.567C174.381 7.82733 174.422 8.11517 174.422 8.4305V12H173.245V8.4305C173.245 8.05283 173.157 7.7595 172.981 7.5505C172.808 7.3415 172.544 7.237 172.189 7.237C171.925 7.237 171.679 7.2975 171.452 7.4185C171.228 7.5395 171.017 7.7045 170.819 7.9135V12H169.637V6.39H170.352C170.513 6.39 170.616 6.46517 170.66 6.6155L170.742 7.1325ZM182.889 8.1005V11.2355C182.101 11.8038 181.184 12.088 180.139 12.088C179.497 12.088 178.916 11.989 178.395 11.791C177.878 11.5893 177.437 11.3107 177.07 10.955C176.703 10.5957 176.421 10.1685 176.223 9.6735C176.025 9.1785 175.926 8.634 175.926 8.04C175.926 7.44233 176.021 6.896 176.212 6.401C176.403 5.90233 176.676 5.47517 177.031 5.1195C177.387 4.76017 177.816 4.48333 178.318 4.289C178.821 4.091 179.385 3.992 180.012 3.992C180.331 3.992 180.627 4.01767 180.898 4.069C181.173 4.11667 181.428 4.1845 181.662 4.2725C181.897 4.3605 182.113 4.46683 182.311 4.5915C182.509 4.71617 182.691 4.8555 182.856 5.0095L182.487 5.598C182.429 5.68967 182.354 5.7465 182.262 5.7685C182.17 5.7905 182.071 5.7685 181.965 5.7025C181.859 5.64017 181.745 5.57417 181.624 5.5045C181.507 5.43483 181.371 5.37067 181.217 5.312C181.063 5.24967 180.885 5.20017 180.683 5.1635C180.482 5.12317 180.243 5.103 179.968 5.103C179.55 5.103 179.173 5.17267 178.835 5.312C178.502 5.44767 178.216 5.64383 177.977 5.9005C177.739 6.1535 177.556 6.4615 177.427 6.8245C177.299 7.1875 177.235 7.59267 177.235 8.04C177.235 8.513 177.303 8.9365 177.438 9.3105C177.574 9.68083 177.767 9.99617 178.016 10.2565C178.265 10.5132 178.566 10.7093 178.918 10.845C179.274 10.9807 179.67 11.0485 180.106 11.0485C180.432 11.0485 180.722 11.0137 180.975 10.944C181.232 10.8743 181.483 10.7772 181.728 10.6525V9.0795H180.623C180.539 9.0795 180.473 9.0575 180.425 9.0135C180.377 8.96583 180.353 8.90533 180.353 8.832V8.1005H182.889ZM187.048 6.302C187.463 6.302 187.837 6.36983 188.17 6.5055C188.508 6.64117 188.794 6.83367 189.028 7.083C189.267 7.33233 189.45 7.63483 189.578 7.9905C189.707 8.34617 189.771 8.74583 189.771 9.1895C189.771 9.63317 189.707 10.0328 189.578 10.3885C189.45 10.7442 189.267 11.0485 189.028 11.3015C188.794 11.5508 188.508 11.7433 188.17 11.879C187.837 12.0147 187.463 12.0825 187.048 12.0825C186.63 12.0825 186.253 12.0147 185.915 11.879C185.582 11.7433 185.296 11.5508 185.057 11.3015C184.819 11.0485 184.636 10.7442 184.507 10.3885C184.379 10.0328 184.315 9.63317 184.315 9.1895C184.315 8.74583 184.379 8.34617 184.507 7.9905C184.636 7.63483 184.819 7.33233 185.057 7.083C185.296 6.83367 185.582 6.64117 185.915 6.5055C186.253 6.36983 186.63 6.302 187.048 6.302ZM187.048 11.1585C187.554 11.1585 187.93 10.9898 188.176 10.6525C188.425 10.3115 188.55 9.82567 188.55 9.195C188.55 8.56433 188.425 8.0785 188.176 7.7375C187.93 7.39283 187.554 7.2205 187.048 7.2205C186.535 7.2205 186.154 7.39283 185.904 7.7375C185.655 8.0785 185.53 8.56433 185.53 9.195C185.53 9.82567 185.655 10.3115 185.904 10.6525C186.154 10.9898 186.535 11.1585 187.048 11.1585ZM192.639 6.39V12H191.457V6.39H192.639ZM192.837 4.696C192.837 4.80233 192.815 4.90317 192.771 4.9985C192.731 5.09383 192.674 5.17817 192.601 5.2515C192.527 5.32117 192.441 5.378 192.342 5.422C192.247 5.46233 192.144 5.4825 192.034 5.4825C191.928 5.4825 191.827 5.46233 191.732 5.422C191.64 5.378 191.559 5.32117 191.49 5.2515C191.42 5.17817 191.363 5.09383 191.319 4.9985C191.279 4.90317 191.259 4.80233 191.259 4.696C191.259 4.586 191.279 4.48333 191.319 4.388C191.363 4.29267 191.42 4.21017 191.49 4.1405C191.559 4.06717 191.64 4.01033 191.732 3.97C191.827 3.926 191.928 3.904 192.034 3.904C192.144 3.904 192.247 3.926 192.342 3.97C192.441 4.01033 192.527 4.06717 192.601 4.1405C192.674 4.21017 192.731 4.29267 192.771 4.388C192.815 4.48333 192.837 4.586 192.837 4.696ZM195.73 7.1325C195.851 7.00783 195.976 6.896 196.104 6.797C196.236 6.69433 196.376 6.60633 196.522 6.533C196.669 6.45967 196.825 6.40283 196.99 6.3625C197.155 6.32217 197.334 6.302 197.529 6.302C197.837 6.302 198.106 6.35333 198.337 6.456C198.572 6.55867 198.768 6.7035 198.926 6.8905C199.087 7.0775 199.208 7.303 199.289 7.567C199.369 7.82733 199.41 8.11517 199.41 8.4305V12H198.233V8.4305C198.233 8.05283 198.145 7.7595 197.969 7.5505C197.796 7.3415 197.532 7.237 197.177 7.237C196.913 7.237 196.667 7.2975 196.44 7.4185C196.216 7.5395 196.005 7.7045 195.807 7.9135V12H194.625V6.39H195.34C195.501 6.39 195.604 6.46517 195.648 6.6155L195.73 7.1325ZM203.293 9.1455C203.659 9.1455 203.934 9.052 204.118 8.865C204.301 8.678 204.393 8.43417 204.393 8.1335C204.393 7.8255 204.301 7.58167 204.118 7.402C203.934 7.22233 203.659 7.1325 203.293 7.1325C202.93 7.1325 202.655 7.22233 202.468 7.402C202.284 7.58167 202.193 7.8255 202.193 8.1335C202.193 8.28017 202.217 8.41583 202.264 8.5405C202.312 8.66517 202.382 8.77333 202.473 8.865C202.565 8.953 202.679 9.02267 202.814 9.074C202.954 9.12167 203.113 9.1455 203.293 9.1455ZM204.937 12.275C204.937 12.1503 204.901 12.0513 204.827 11.978C204.758 11.901 204.662 11.8423 204.541 11.802C204.42 11.758 204.279 11.7268 204.118 11.7085C203.956 11.6865 203.784 11.6718 203.601 11.6645C203.421 11.6535 203.236 11.6443 203.045 11.637C202.858 11.626 202.677 11.6077 202.501 11.582C202.325 11.6737 202.18 11.7837 202.066 11.912C201.956 12.0403 201.901 12.1888 201.901 12.3575C201.901 12.4675 201.929 12.5702 201.984 12.6655C202.042 12.7608 202.13 12.8433 202.248 12.913C202.369 12.9827 202.521 13.0377 202.704 13.078C202.891 13.1183 203.115 13.1385 203.375 13.1385C203.896 13.1385 204.286 13.0578 204.547 12.8965C204.807 12.7352 204.937 12.528 204.937 12.275ZM206.125 6.5935V7.0335C206.125 7.18017 206.037 7.27 205.861 7.303L205.3 7.3965C205.396 7.60917 205.443 7.84567 205.443 8.106C205.443 8.381 205.388 8.63033 205.278 8.854C205.172 9.07767 205.023 9.26833 204.833 9.426C204.642 9.58367 204.415 9.70467 204.151 9.789C203.887 9.87333 203.601 9.9155 203.293 9.9155C203.175 9.9155 203.06 9.91 202.946 9.899C202.836 9.88433 202.728 9.866 202.622 9.844C202.515 9.90633 202.437 9.97233 202.385 10.042C202.334 10.1117 202.308 10.1832 202.308 10.2565C202.308 10.3775 202.361 10.4673 202.468 10.526C202.574 10.5847 202.713 10.6268 202.886 10.6525C203.062 10.6782 203.262 10.6947 203.485 10.702C203.709 10.7093 203.936 10.7222 204.167 10.7405C204.398 10.7588 204.626 10.79 204.849 10.834C205.073 10.8743 205.271 10.944 205.443 11.043C205.619 11.1383 205.76 11.2685 205.867 11.4335C205.973 11.5985 206.026 11.813 206.026 12.077C206.026 12.319 205.966 12.5555 205.845 12.7865C205.724 13.0175 205.548 13.2228 205.317 13.4025C205.089 13.5822 204.811 13.7252 204.481 13.8315C204.151 13.9415 203.775 13.9965 203.353 13.9965C202.935 13.9965 202.57 13.9562 202.259 13.8755C201.951 13.7948 201.692 13.6848 201.483 13.5455C201.278 13.4098 201.124 13.2522 201.021 13.0725C200.922 12.8928 200.873 12.7058 200.873 12.5115C200.873 12.2475 200.955 12.022 201.12 11.835C201.289 11.648 201.516 11.5013 201.802 11.395C201.648 11.3217 201.524 11.2208 201.428 11.0925C201.337 10.9642 201.291 10.7955 201.291 10.5865C201.291 10.4215 201.351 10.2492 201.472 10.0695C201.593 9.88983 201.775 9.73767 202.017 9.613C201.738 9.459 201.518 9.2555 201.357 9.0025C201.195 8.74583 201.115 8.447 201.115 8.106C201.115 7.82733 201.168 7.57617 201.274 7.3525C201.384 7.12883 201.536 6.93817 201.731 6.7805C201.925 6.62283 202.154 6.50183 202.418 6.4175C202.686 6.33317 202.977 6.291 203.293 6.291C203.777 6.291 204.198 6.39183 204.558 6.5935H206.125Z" fill="#6F6F6F"/>
<rect x="181.5" y="18" width="3" height="3" rx="1.5" fill="#0043CE"/>
<rect x="149" y="29" width="68" height="8" rx="4" fill="#F1C21B"/>
<path d="M238.028 8.117C238.314 8.117 238.565 8.08033 238.781 8.007C239.001 7.93367 239.183 7.831 239.326 7.699C239.472 7.56333 239.582 7.40017 239.656 7.2095C239.729 7.01883 239.766 6.80617 239.766 6.5715C239.766 6.3405 239.729 6.13333 239.656 5.95C239.586 5.76667 239.48 5.61083 239.337 5.4825C239.194 5.35417 239.012 5.257 238.792 5.191C238.576 5.12133 238.321 5.0865 238.028 5.0865H236.851V8.117H238.028ZM238.028 4.08C238.545 4.08 238.992 4.1405 239.37 4.2615C239.751 4.3825 240.064 4.553 240.31 4.773C240.559 4.98933 240.745 5.2515 240.866 5.5595C240.987 5.86383 241.047 6.20117 241.047 6.5715C241.047 6.94917 240.983 7.29567 240.855 7.611C240.726 7.92267 240.536 8.19217 240.283 8.4195C240.03 8.64317 239.714 8.81917 239.337 8.9475C238.963 9.07217 238.526 9.1345 238.028 9.1345H236.851V12H235.564V4.08H238.028ZM245.383 9.547C244.961 9.56167 244.606 9.5965 244.316 9.6515C244.026 9.70283 243.792 9.77067 243.612 9.855C243.432 9.93567 243.302 10.0328 243.222 10.1465C243.145 10.2602 243.106 10.3848 243.106 10.5205C243.106 10.6525 243.126 10.7662 243.167 10.8615C243.211 10.9532 243.269 11.0302 243.343 11.0925C243.42 11.1512 243.508 11.1952 243.607 11.2245C243.709 11.2502 243.821 11.263 243.942 11.263C244.25 11.263 244.514 11.2062 244.734 11.0925C244.958 10.9752 245.174 10.8065 245.383 10.5865V9.547ZM242.248 7.171C242.882 6.58067 243.638 6.2855 244.514 6.2855C244.837 6.2855 245.123 6.33867 245.372 6.445C245.625 6.54767 245.836 6.69433 246.005 6.885C246.177 7.07567 246.307 7.303 246.395 7.567C246.487 7.82733 246.533 8.117 246.533 8.436V12H246.005C245.891 12 245.805 11.9835 245.746 11.9505C245.687 11.9138 245.638 11.8423 245.598 11.736L245.482 11.2795C245.339 11.4078 245.198 11.5233 245.059 11.626C244.919 11.725 244.774 11.8093 244.624 11.879C244.477 11.9487 244.318 12 244.146 12.033C243.977 12.0697 243.79 12.088 243.585 12.088C243.357 12.088 243.145 12.0568 242.947 11.9945C242.752 11.9322 242.584 11.8387 242.441 11.714C242.298 11.5857 242.184 11.428 242.1 11.241C242.019 11.054 241.979 10.834 241.979 10.581C241.979 10.3647 242.035 10.1538 242.149 9.9485C242.266 9.74317 242.457 9.55983 242.721 9.3985C242.989 9.2335 243.339 9.09783 243.772 8.9915C244.208 8.88517 244.745 8.82467 245.383 8.81V8.436C245.383 8.03267 245.297 7.732 245.125 7.534C244.952 7.336 244.699 7.237 244.366 7.237C244.138 7.237 243.948 7.26633 243.794 7.325C243.64 7.38 243.506 7.4405 243.392 7.5065C243.278 7.5725 243.178 7.63483 243.09 7.6935C243.002 7.7485 242.908 7.776 242.809 7.776C242.728 7.776 242.659 7.75583 242.6 7.7155C242.545 7.6715 242.499 7.61833 242.463 7.556L242.248 7.171ZM253.245 6.39L250.154 13.595C250.114 13.6793 250.064 13.7453 250.005 13.793C249.95 13.8407 249.864 13.8645 249.747 13.8645H248.872L249.906 11.6205L247.618 6.39H248.647C248.746 6.39 248.821 6.41383 248.872 6.4615C248.927 6.5055 248.968 6.55867 248.993 6.621L250.33 9.8055C250.363 9.89717 250.392 9.98883 250.418 10.0805C250.447 10.1685 250.475 10.2602 250.5 10.3555C250.53 10.2602 250.559 10.1667 250.588 10.075C250.618 9.98333 250.651 9.89167 250.687 9.8L251.969 6.621C251.995 6.555 252.037 6.5 252.095 6.456C252.158 6.412 252.226 6.39 252.299 6.39H253.245ZM254.514 12V6.39H255.229C255.391 6.39 255.493 6.46517 255.537 6.6155L255.614 7.105C255.717 6.98767 255.823 6.88133 255.933 6.786C256.043 6.687 256.161 6.60267 256.285 6.533C256.414 6.45967 256.549 6.40283 256.692 6.3625C256.839 6.32217 256.997 6.302 257.165 6.302C257.345 6.302 257.51 6.32767 257.66 6.379C257.811 6.43033 257.943 6.50367 258.056 6.599C258.174 6.69433 258.275 6.80983 258.359 6.9455C258.443 7.08117 258.513 7.23333 258.568 7.402C258.652 7.20767 258.759 7.04083 258.887 6.9015C259.015 6.76217 259.158 6.6485 259.316 6.5605C259.474 6.4725 259.64 6.40833 259.816 6.368C259.996 6.324 260.178 6.302 260.361 6.302C260.662 6.302 260.929 6.34967 261.164 6.445C261.402 6.54033 261.602 6.67967 261.763 6.863C261.928 7.04267 262.053 7.2645 262.137 7.5285C262.222 7.7925 262.264 8.09317 262.264 8.4305V12H261.081V8.4305C261.081 8.0345 260.995 7.7375 260.823 7.5395C260.654 7.33783 260.403 7.237 260.069 7.237C259.919 7.237 259.778 7.26267 259.646 7.314C259.514 7.36533 259.398 7.4405 259.299 7.5395C259.2 7.6385 259.122 7.76317 259.063 7.9135C259.008 8.06017 258.98 8.2325 258.98 8.4305V12H257.798V8.4305C257.798 8.01983 257.715 7.71917 257.55 7.5285C257.385 7.33417 257.143 7.237 256.824 7.237C256.604 7.237 256.401 7.29383 256.214 7.4075C256.027 7.5175 255.855 7.66967 255.697 7.864V12H254.514ZM267.825 8.5625C267.825 8.3645 267.795 8.18117 267.737 8.0125C267.682 7.84017 267.599 7.69167 267.489 7.567C267.379 7.43867 267.242 7.33967 267.077 7.27C266.915 7.19667 266.728 7.16 266.516 7.16C266.087 7.16 265.749 7.28283 265.504 7.5285C265.258 7.77417 265.102 8.11883 265.036 8.5625H267.825ZM265.003 9.2885C265.018 9.6075 265.067 9.88433 265.152 10.119C265.236 10.35 265.348 10.5425 265.487 10.6965C265.63 10.8505 265.799 10.966 265.993 11.043C266.191 11.1163 266.411 11.153 266.653 11.153C266.884 11.153 267.084 11.1273 267.253 11.076C267.421 11.021 267.568 10.9623 267.693 10.9C267.817 10.834 267.924 10.7753 268.012 10.724C268.1 10.669 268.18 10.6415 268.254 10.6415C268.349 10.6415 268.422 10.6782 268.474 10.7515L268.809 11.186C268.67 11.351 268.512 11.4903 268.336 11.604C268.16 11.7177 267.973 11.8112 267.775 11.8845C267.577 11.9542 267.374 12.0037 267.165 12.033C266.956 12.066 266.752 12.0825 266.554 12.0825C266.166 12.0825 265.804 12.0183 265.471 11.89C265.141 11.758 264.853 11.5655 264.607 11.3125C264.365 11.0595 264.175 10.746 264.035 10.372C263.9 9.998 263.832 9.56717 263.832 9.0795C263.832 8.69083 263.892 8.32783 264.013 7.9905C264.138 7.65317 264.314 7.35983 264.541 7.1105C264.772 6.86117 265.051 6.665 265.377 6.522C265.707 6.37533 266.079 6.302 266.494 6.302C266.838 6.302 267.157 6.35883 267.451 6.4725C267.744 6.5825 267.997 6.74567 268.21 6.962C268.422 7.17833 268.587 7.44417 268.705 7.7595C268.826 8.07117 268.886 8.42683 268.886 8.8265C268.886 9.00983 268.866 9.13267 268.826 9.195C268.785 9.25733 268.712 9.2885 268.606 9.2885H265.003ZM271.595 7.1325C271.716 7.00783 271.84 6.896 271.969 6.797C272.101 6.69433 272.24 6.60633 272.387 6.533C272.533 6.45967 272.689 6.40283 272.854 6.3625C273.019 6.32217 273.199 6.302 273.393 6.302C273.701 6.302 273.971 6.35333 274.202 6.456C274.436 6.55867 274.632 6.7035 274.79 6.8905C274.951 7.0775 275.072 7.303 275.153 7.567C275.234 7.82733 275.274 8.11517 275.274 8.4305V12H274.097V8.4305C274.097 8.05283 274.009 7.7595 273.833 7.5505C273.661 7.3415 273.397 7.237 273.041 7.237C272.777 7.237 272.531 7.2975 272.304 7.4185C272.08 7.5395 271.87 7.7045 271.672 7.9135V12H270.489V6.39H271.204C271.365 6.39 271.468 6.46517 271.512 6.6155L271.595 7.1325ZM278.878 12.088C278.413 12.088 278.053 11.9578 277.8 11.6975C277.551 11.4335 277.426 11.0632 277.426 10.5865V7.3195H276.81C276.744 7.3195 276.688 7.29933 276.64 7.259C276.592 7.215 276.568 7.15083 276.568 7.0665V6.588L277.476 6.456L277.734 4.8335C277.753 4.77117 277.784 4.72167 277.828 4.685C277.872 4.64467 277.931 4.6245 278.004 4.6245H278.609V6.467H280.165V7.3195H278.609V10.504C278.609 10.7057 278.658 10.8597 278.757 10.966C278.856 11.0723 278.988 11.1255 279.153 11.1255C279.245 11.1255 279.324 11.1145 279.39 11.0925C279.456 11.0668 279.513 11.0412 279.56 11.0155C279.608 10.9862 279.648 10.9605 279.681 10.9385C279.718 10.9128 279.753 10.9 279.786 10.9C279.852 10.9 279.905 10.9367 279.945 11.01L280.297 11.5875C280.114 11.7488 279.898 11.8735 279.648 11.9615C279.399 12.0458 279.142 12.088 278.878 12.088Z" fill="#6F6F6F"/>
<rect x="256" y="18" width="3" height="3" rx="1.5" fill="#F1C21B"/>
<rect x="224" y="29" width="67" height="8" rx="4" fill="#B3B3B3"/>
<path d="M310.295 10.2345C310.364 10.2345 310.425 10.262 310.476 10.317L310.988 10.8725C310.665 11.2612 310.269 11.5618 309.8 11.7745C309.33 11.9835 308.769 12.088 308.117 12.088C307.537 12.088 307.013 11.989 306.544 11.791C306.078 11.5893 305.68 11.3107 305.35 10.955C305.02 10.5957 304.765 10.1685 304.586 9.6735C304.41 9.1785 304.322 8.634 304.322 8.04C304.322 7.446 304.415 6.9015 304.602 6.4065C304.793 5.90783 305.059 5.48067 305.4 5.125C305.744 4.76567 306.155 4.487 306.632 4.289C307.112 4.091 307.64 3.992 308.216 3.992C308.788 3.992 309.292 4.0855 309.728 4.2725C310.168 4.45583 310.549 4.7015 310.872 5.0095L310.449 5.609C310.419 5.64933 310.384 5.68417 310.344 5.7135C310.304 5.74283 310.249 5.7575 310.179 5.7575C310.106 5.7575 310.021 5.7245 309.926 5.6585C309.834 5.58883 309.715 5.51367 309.569 5.433C309.426 5.34867 309.244 5.2735 309.024 5.2075C308.808 5.13783 308.536 5.103 308.21 5.103C307.832 5.103 307.486 5.169 307.171 5.301C306.855 5.433 306.584 5.6255 306.357 5.8785C306.129 6.1315 305.951 6.4395 305.823 6.8025C305.698 7.1655 305.636 7.578 305.636 8.04C305.636 8.50567 305.702 8.92183 305.834 9.2885C305.966 9.6515 306.148 9.9595 306.379 10.2125C306.61 10.4618 306.881 10.6525 307.193 10.7845C307.504 10.9165 307.84 10.9825 308.199 10.9825C308.419 10.9825 308.615 10.9715 308.788 10.9495C308.964 10.9238 309.125 10.8853 309.272 10.834C309.418 10.779 309.556 10.7112 309.684 10.6305C309.816 10.5498 309.946 10.4508 310.075 10.3335C310.148 10.2675 310.221 10.2345 310.295 10.2345ZM314.687 6.302C315.101 6.302 315.475 6.36983 315.809 6.5055C316.146 6.64117 316.432 6.83367 316.667 7.083C316.905 7.33233 317.088 7.63483 317.217 7.9905C317.345 8.34617 317.409 8.74583 317.409 9.1895C317.409 9.63317 317.345 10.0328 317.217 10.3885C317.088 10.7442 316.905 11.0485 316.667 11.3015C316.432 11.5508 316.146 11.7433 315.809 11.879C315.475 12.0147 315.101 12.0825 314.687 12.0825C314.269 12.0825 313.891 12.0147 313.554 11.879C313.22 11.7433 312.934 11.5508 312.696 11.3015C312.457 11.0485 312.274 10.7442 312.146 10.3885C312.017 10.0328 311.953 9.63317 311.953 9.1895C311.953 8.74583 312.017 8.34617 312.146 7.9905C312.274 7.63483 312.457 7.33233 312.696 7.083C312.934 6.83367 313.22 6.64117 313.554 6.5055C313.891 6.36983 314.269 6.302 314.687 6.302ZM314.687 11.1585C315.193 11.1585 315.568 10.9898 315.814 10.6525C316.063 10.3115 316.188 9.82567 316.188 9.195C316.188 8.56433 316.063 8.0785 315.814 7.7375C315.568 7.39283 315.193 7.2205 314.687 7.2205C314.173 7.2205 313.792 7.39283 313.543 7.7375C313.293 8.0785 313.169 8.56433 313.169 9.195C313.169 9.82567 313.293 10.3115 313.543 10.6525C313.792 10.9898 314.173 11.1585 314.687 11.1585ZM319.045 12V6.39H319.76C319.922 6.39 320.024 6.46517 320.068 6.6155L320.145 7.105C320.248 6.98767 320.354 6.88133 320.464 6.786C320.574 6.687 320.692 6.60267 320.816 6.533C320.945 6.45967 321.08 6.40283 321.223 6.3625C321.37 6.32217 321.528 6.302 321.696 6.302C321.876 6.302 322.041 6.32767 322.191 6.379C322.342 6.43033 322.474 6.50367 322.587 6.599C322.705 6.69433 322.805 6.80983 322.89 6.9455C322.974 7.08117 323.044 7.23333 323.099 7.402C323.183 7.20767 323.289 7.04083 323.418 6.9015C323.546 6.76217 323.689 6.6485 323.847 6.5605C324.004 6.4725 324.171 6.40833 324.347 6.368C324.527 6.324 324.708 6.302 324.892 6.302C325.192 6.302 325.46 6.34967 325.695 6.445C325.933 6.54033 326.133 6.67967 326.294 6.863C326.459 7.04267 326.584 7.2645 326.668 7.5285C326.753 7.7925 326.795 8.09317 326.795 8.4305V12H325.612V8.4305C325.612 8.0345 325.526 7.7375 325.354 7.5395C325.185 7.33783 324.934 7.237 324.6 7.237C324.45 7.237 324.309 7.26267 324.177 7.314C324.045 7.36533 323.929 7.4405 323.83 7.5395C323.731 7.6385 323.652 7.76317 323.594 7.9135C323.539 8.06017 323.511 8.2325 323.511 8.4305V12H322.329V8.4305C322.329 8.01983 322.246 7.71917 322.081 7.5285C321.916 7.33417 321.674 7.237 321.355 7.237C321.135 7.237 320.932 7.29383 320.745 7.4075C320.558 7.5175 320.385 7.66967 320.228 7.864V12H319.045ZM329.859 10.592C330.024 10.8047 330.203 10.955 330.398 11.043C330.596 11.1273 330.814 11.1695 331.052 11.1695C331.514 11.1695 331.873 11.0008 332.13 10.6635C332.39 10.3262 332.521 9.82383 332.521 9.1565C332.521 8.81183 332.491 8.5185 332.433 8.2765C332.374 8.03083 332.29 7.831 332.18 7.677C332.07 7.523 331.936 7.41117 331.778 7.3415C331.62 7.27183 331.443 7.237 331.245 7.237C330.944 7.237 330.684 7.303 330.464 7.435C330.247 7.56333 330.046 7.7485 329.859 7.9905V10.592ZM329.798 7.204C330.033 6.929 330.299 6.70717 330.596 6.5385C330.896 6.36983 331.245 6.2855 331.641 6.2855C331.956 6.2855 332.242 6.34967 332.499 6.478C332.755 6.60267 332.975 6.786 333.159 7.028C333.342 7.27 333.483 7.57067 333.582 7.93C333.685 8.28567 333.736 8.6945 333.736 9.1565C333.736 9.57083 333.679 9.95767 333.566 10.317C333.456 10.6727 333.296 10.9825 333.087 11.2465C332.878 11.5068 332.625 11.7122 332.328 11.8625C332.031 12.0092 331.696 12.0825 331.322 12.0825C330.992 12.0825 330.711 12.0293 330.48 11.923C330.253 11.8167 330.046 11.67 329.859 11.483V13.8645H328.676V6.39H329.391C329.552 6.39 329.655 6.46517 329.699 6.6155L329.798 7.204ZM336.59 3.86V12H335.407V3.86H336.59ZM342.229 8.5625C342.229 8.3645 342.199 8.18117 342.141 8.0125C342.086 7.84017 342.003 7.69167 341.893 7.567C341.783 7.43867 341.646 7.33967 341.481 7.27C341.319 7.19667 341.132 7.16 340.92 7.16C340.491 7.16 340.153 7.28283 339.908 7.5285C339.662 7.77417 339.506 8.11883 339.44 8.5625H342.229ZM339.407 9.2885C339.422 9.6075 339.471 9.88433 339.556 10.119C339.64 10.35 339.752 10.5425 339.891 10.6965C340.034 10.8505 340.203 10.966 340.397 11.043C340.595 11.1163 340.815 11.153 341.057 11.153C341.288 11.153 341.488 11.1273 341.657 11.076C341.825 11.021 341.972 10.9623 342.097 10.9C342.221 10.834 342.328 10.7753 342.416 10.724C342.504 10.669 342.584 10.6415 342.658 10.6415C342.753 10.6415 342.826 10.6782 342.878 10.7515L343.213 11.186C343.074 11.351 342.916 11.4903 342.74 11.604C342.564 11.7177 342.377 11.8112 342.179 11.8845C341.981 11.9542 341.778 12.0037 341.569 12.033C341.36 12.066 341.156 12.0825 340.958 12.0825C340.569 12.0825 340.208 12.0183 339.875 11.89C339.545 11.758 339.257 11.5655 339.011 11.3125C338.769 11.0595 338.578 10.746 338.439 10.372C338.303 9.998 338.236 9.56717 338.236 9.0795C338.236 8.69083 338.296 8.32783 338.417 7.9905C338.542 7.65317 338.718 7.35983 338.945 7.1105C339.176 6.86117 339.455 6.665 339.781 6.522C340.111 6.37533 340.483 6.302 340.898 6.302C341.242 6.302 341.561 6.35883 341.855 6.4725C342.148 6.5825 342.401 6.74567 342.614 6.962C342.826 7.17833 342.991 7.44417 343.109 7.7595C343.23 8.07117 343.29 8.42683 343.29 8.8265C343.29 9.00983 343.27 9.13267 343.23 9.195C343.189 9.25733 343.116 9.2885 343.01 9.2885H339.407ZM346.638 12.088C346.172 12.088 345.813 11.9578 345.56 11.6975C345.31 11.4335 345.186 11.0632 345.186 10.5865V7.3195H344.57C344.504 7.3195 344.447 7.29933 344.399 7.259C344.351 7.215 344.328 7.15083 344.328 7.0665V6.588L345.235 6.456L345.494 4.8335C345.512 4.77117 345.543 4.72167 345.587 4.685C345.631 4.64467 345.69 4.6245 345.763 4.6245H346.368V6.467H347.925V7.3195H346.368V10.504C346.368 10.7057 346.418 10.8597 346.517 10.966C346.616 11.0723 346.748 11.1255 346.913 11.1255C347.004 11.1255 347.083 11.1145 347.149 11.0925C347.215 11.0668 347.272 11.0412 347.32 11.0155C347.367 10.9862 347.408 10.9605 347.441 10.9385C347.477 10.9128 347.512 10.9 347.545 10.9C347.611 10.9 347.664 10.9367 347.705 11.01L348.057 11.5875C347.873 11.7488 347.657 11.8735 347.408 11.9615C347.158 12.0458 346.902 12.088 346.638 12.088ZM352.993 8.5625C352.993 8.3645 352.964 8.18117 352.905 8.0125C352.85 7.84017 352.768 7.69167 352.658 7.567C352.548 7.43867 352.41 7.33967 352.245 7.27C352.084 7.19667 351.897 7.16 351.684 7.16C351.255 7.16 350.918 7.28283 350.672 7.5285C350.427 7.77417 350.271 8.11883 350.205 8.5625H352.993ZM350.172 9.2885C350.186 9.6075 350.236 9.88433 350.32 10.119C350.405 10.35 350.516 10.5425 350.656 10.6965C350.799 10.8505 350.967 10.966 351.162 11.043C351.36 11.1163 351.58 11.153 351.822 11.153C352.053 11.153 352.253 11.1273 352.421 11.076C352.59 11.021 352.737 10.9623 352.861 10.9C352.986 10.834 353.092 10.7753 353.18 10.724C353.268 10.669 353.349 10.6415 353.422 10.6415C353.518 10.6415 353.591 10.6782 353.642 10.7515L353.978 11.186C353.838 11.351 353.681 11.4903 353.505 11.604C353.329 11.7177 353.142 11.8112 352.944 11.8845C352.746 11.9542 352.542 12.0037 352.333 12.033C352.124 12.066 351.921 12.0825 351.723 12.0825C351.334 12.0825 350.973 12.0183 350.639 11.89C350.309 11.758 350.021 11.5655 349.776 11.3125C349.534 11.0595 349.343 10.746 349.204 10.372C349.068 9.998 349 9.56717 349 9.0795C349 8.69083 349.061 8.32783 349.182 7.9905C349.306 7.65317 349.482 7.35983 349.71 7.1105C349.941 6.86117 350.219 6.665 350.546 6.522C350.876 6.37533 351.248 6.302 351.662 6.302C352.007 6.302 352.326 6.35883 352.619 6.4725C352.913 6.5825 353.166 6.74567 353.378 6.962C353.591 7.17833 353.756 7.44417 353.873 7.7595C353.994 8.07117 354.055 8.42683 354.055 8.8265C354.055 9.00983 354.035 9.13267 353.994 9.195C353.954 9.25733 353.881 9.2885 353.774 9.2885H350.172ZM359.238 7.7705C359.073 7.55783 358.892 7.40933 358.694 7.325C358.496 7.24067 358.281 7.1985 358.05 7.1985C357.588 7.1985 357.227 7.369 356.967 7.71C356.706 8.04733 356.576 8.54783 356.576 9.2115C356.576 9.55617 356.605 9.85133 356.664 10.097C356.723 10.339 356.807 10.537 356.917 10.691C357.027 10.845 357.161 10.9568 357.319 11.0265C357.476 11.0962 357.654 11.131 357.852 11.131C358.153 11.131 358.411 11.0668 358.628 10.9385C358.848 10.8065 359.051 10.6213 359.238 10.383V7.7705ZM360.421 3.86V12H359.706C359.548 12 359.447 11.9248 359.403 11.7745L359.299 11.164C359.064 11.439 358.796 11.6608 358.496 11.8295C358.199 11.9982 357.852 12.0825 357.456 12.0825C357.141 12.0825 356.855 12.0202 356.598 11.8955C356.341 11.7672 356.121 11.582 355.938 11.34C355.755 11.098 355.612 10.7992 355.509 10.4435C355.41 10.0842 355.361 9.6735 355.361 9.2115C355.361 8.7935 355.416 8.40667 355.526 8.051C355.639 7.69533 355.801 7.38733 356.01 7.127C356.219 6.863 356.472 6.65767 356.769 6.511C357.069 6.36067 357.405 6.2855 357.775 6.2855C358.105 6.2855 358.386 6.33867 358.617 6.445C358.848 6.54767 359.055 6.6925 359.238 6.8795V3.86H360.421Z" fill="#6F6F6F"/>
<rect x="331" y="18" width="3" height="3" rx="1.5" fill="#0043CE"/>
<rect x="299" y="29" width="67" height="8" rx="4" fill="#B3B3B3"/>
<defs>
<clipPath id="clip0_423_68">
<rect y="29" width="67" height="8" rx="4" fill="white"/>
</clipPath>
<clipPath id="clip1_423_68">
<rect x="75" y="29" width="67" height="8" rx="4" fill="white"/>
</clipPath>
</defs>
</svg>
